{
  "accessors": [
    {
      "bufferView": 2,
      "componentType": 5126,
      "count": 5295,
      "max": [
        9.315936088562012,
        9.315934181213379,
        1.5574003458023071
      ],
      "min": [
        -9.315934181213379,
        -9.315934181213379,
        -1.5573999881744385
      ],
      "type": "VEC3"
    },
    {
      "bufferView": 2,
      "byteOffset": 63540,
      "componentType": 5126,
      "count": 5295,
      "max": [
        1.0,
        1.0,
        1.0
      ],
      "min": [
        -1.0,
        -1.0,
        -1.0
      ],
      "type": "VEC3"
    },
    {
      "bufferView": 3,
      "componentType": 5126,
      "count": 5295,
      "max": [
        1.0,
        0.9996907114982605,
        0.9999187588691711,
        1.0
      ],
      "min": [
        -0.9998706579208374,
        -0.9999741911888123,
        -0.9999494552612305,
        1.0
      ],
      "type": "VEC4"
    },
    {
      "bufferView": 1,
      "componentType": 5126,
      "count": 5295,
      "max": [
        0.999500036239624,
        0.9960766434669495
      ],
      "min": [
        0.0005000000237487257,
        0.0005000000237487257
      ],
      "type": "VEC2"
    },
    {
      "bufferView": 0,
      "componentType": 5125,
      "count": 29640,
      "type": "SCALAR"
    }
  ],
  "asset": {
    "extras": {
      "author": "Casper_B_A (https://sketchfab.com/Casper_B_A)",
      "license": "CC-BY-4.0 (http://creativecommons.org/licenses/by/4.0/)",
      "source": "https://sketchfab.com/3d-models/steering-wheel-zil-131-0b98a124cd5c4f96ae702a8b5a0da70a",
      "title": "steering wheel Zil 131"
    },
    "generator": "Sketchfab-12.68.0",
    "version": "2.0"
  },
  "bufferViews": [
    {
      "buffer": 0,
      "byteLength": 118560,
      "name": "floatBufferViews",
      "target": 34963
    },
    {
      "buffer": 0,
      "byteLength": 42360,
      "byteOffset": 118560,
      "byteStride": 8,
      "name": "floatBufferViews",
      "target": 34962
    },
    {
      "buffer": 0,
      "byteLength": 127080,
      "byteOffset": 160920,
      "byteStride": 12,
      "name": "floatBufferViews",
      "target": 34962
    },
    {
      "buffer": 0,
      "byteLength": 84720,
      "byteOffset": 288000,
      "byteStride": 16,
      "name": "floatBufferViews",
      "target": 34962
    }
  ],
  "buffers": [
    {
      "byteLength": 372720,
      "uri": "scene.bin"
    }
  ],
  "images": [
    {
      "uri": "textures/Rul131_baseColor.png"
    },
    {
      "uri": "textures/Rul131_metallicRoughness.png"
    },
    {
      "uri": "textures/Rul131_normal.png"
    }
  ],
  "materials": [
    {
      "doubleSided": true,
      "name": "Rul131",
      "normalTexture": {
        "index": 2
      },
      "occlusionTexture": {
        "index": 1
      },
      "pbrMetallicRoughness": {
        "baseColorTexture": {
          "index": 0
        },
        "metallicRoughnessTexture": {
          "index": 1
        },
        "roughnessFactor": 0.42124199697207376
      }
    }
  ],
  "meshes": [
    {
      "name": "Cylinder002_Rul131_0",
      "primitives": [
        {
          "attributes": {
            "NORMAL": 1,
            "POSITION": 0,
            "TANGENT": 2,
            "TEXCOORD_0": 3
          },
          "indices": 4,
          "material": 0,
          "mode": 4
        }
      ]
    }
  ],
  "nodes": [
    {
      "children": [
        1
      ],
      "matrix": [
        1.0,
        0.0,
        0.0,
        0.0,
        0.0,
        2.220446049250313e-16,
        -1.0,
        0.0,
        0.0,
        1.0,
        2.220446049250313e-16,
        0.0,
        0.0,
        0.0,
        0.0,
        1.0
      ],
      "name": "Sketchfab_model"
    },
    {
      "children": [
        2
      ],
      "matrix": [
        1.0,
        0.0,
        0.0,
        0.0,
        0.0,
        0.0,
        1.0,
        0.0,
        0.0,
        -1.0,
        0.0,
        0.0,
        0.0,
        0.0,
        0.0,
        1.0
      ],
      "name": "Rul131.fbx"
    },
    {
      "children": [
        3
      ],
      "name": "RootNode"
    },
    {
      "children": [
        4
      ],
      "matrix": [
        1.0,
        0.0,
        0.0,
        0.0,
        0.0,
        2.220446049250313e-16,
        -1.0,
        0.0,
        0.0,
        1.0,
        2.220446049250313e-16,
        0.0,
        -8.174910703928617e-08,
        0.0,
        1.6349821407857235e-07,
        1.0
      ],
      "name": "Cylinder002"
    },
    {
      "mesh": 0,
      "name": "Cylinder002_Rul131_0"
    }
  ],
  "samplers": [
    {
      "magFilter": 9729,
      "minFilter": 9987,
      "wrapS": 10497,
      "wrapT": 10497
    }
  ],
  "scene": 0,
  "scenes": [
    {
      "name": "Sketchfab_Scene",
      "nodes": [
        0
      ]
    }
  ],
  "textures": [
    {
      "sampler": 0,
      "source": 0
    },
    {
      "sampler": 0,
      "source": 1
    },
    {
      "sampler": 0,
      "source": 2
    }
  ]
}
